<svg fill="#ffffff" xmlns="http://www.w3.org/2000/svg" viewBox="0 0 400 400" width="316" height="316">
<path d="m193 .0001c-22.12.855-44.18 4.992-64.843 13.01-55.19 21.12-99.77 68.02-118.4 124.05-6.05 18.641-9.165 38.18-9.763 57.749v12.481c.993 26.01 6.709 51.908 17.594 75.59 19.756 43.24 55.27 79.08 98.42 99.09 20.16 9.261 41.949 14.762 63.987 17.06-.037-10.02 0-20.04-.016-30.06-31.768-4.416-62.875-16.562-87.51-37.39-7.455-6.134-14.15-13.11-20.577-20.293-29.928-33.13-44.518-79.08-40.896-123.41 3.02-40.75 20.531-80.58 49.768-109.31 28.847-28.8 68.956-44.15 109.14-47.625-.022 123.02 0 246.04-.009 369.06h20.05c.377-123.02-.705-246.06.537-369.06 25.14 2.396 50.06 9.05 72.37 21.02 17.856 9.535 33.865 22.522 46.799 38.09 26.322 31.494 40.31 72.7 39.609 113.65-.512 40.819-16.471 81.31-44.22 111.3-12.77 13.613-27.538 25.441-43.968 34.35-18.931 10.337-39.896 16.666-61.22 19.622-.009 10.02.034 20.03-.022 30.05 30.488-3.058 60.49-12.655 86.35-29.23 16.01-10.159 30.419-22.684 43.4-36.459 24.379-29 42.643-63.958 48.21-101.72 6.56-44.797-1.467-92.07-24.447-131.27-10.344-17.794-23.563-33.822-38.499-47.947-18.418-15.304-38.452-29.01-60.64-38.25-21.431-9.04-44.631-13.553-67.85-14.15h-13.347m-13.03 41.42c-35.18 4.58-69.03 20.794-94.19 45.919-29.591 29.581-45.693 71.24-45.849 112.9 36.64.396 73.3-.702 109.93.546 0 39.766.004 79.53-.002 119.29-27.29-11.919-51.696-32.459-64.28-59.852 11.469 0 22.935 0 34.402 0-.006-10.01 0-20.02-.004-30.03-25.756 0-51.51 0-77.27 0 6.284 26.95 17.525 53.18 35.427 74.5 25.2 30.653 63.27 48.05 101.84 54.37-.019-62.952 0-125.9-.009-188.86-35.35-.39-70.72.737-106.05-.549 5.087-20.447 14.725-39.897 28.797-55.658 12.85-14.506 29.24-25.703 47.13-33.06.012 19.8 0 39.597.006 59.39h30.12c0-32.972 0-65.937 0-98.91m40.08.013c-.175.415-.256.858-.225 1.31.022 105.45-.015 210.9.019 316.35 10.214-1.323 20.25-3.728 30.1-6.696v-272c6.753 3.629 14.381 6.153 19.881 11.692.028 83.82.002 167.64.012 251.46 11.1-4.287 21.335-10.83 30.04-18.928-.009-69.01 0-138.03-.002-207.04 12.525 13.975 20.694 31.419 25.441 49.46 7.293 27.475 5.659 57.28-5.439 83.52-.256 18.212-.259 36.481-.065 54.711 7.04-6.01 12.701-13.466 17.451-21.369 10.891-18.456 17.256-39.32 20.425-60.43 3.492-24.466 2.665-49.934-5.227-73.51-9.697-26.15-25.15-50.47-45.862-69.3-23.85-21.7-54.843-34.606-86.55-39.22"/>
</svg>